<?xml version="1.0" standalone="no"?>
<!DOCTYPE svg PUBLIC "-//W3C//DTD SVG 20010904//EN"
 "http://www.w3.org/TR/2001/REC-SVG-20010904/DTD/svg10.dtd">
<svg version="1.0" xmlns="http://www.w3.org/2000/svg"
 width="1200.000000pt" height="630.000000pt" viewBox="0 0 1200.000000 630.000000"
 preserveAspectRatio="xMidYMid meet">

<g transform="translate(0.000000,630.000000) scale(0.100000,-0.100000)"
fill="#000000" stroke="none">
<path d="M0 5441 c0 -747 2 -860 15 -871 8 -7 22 -37 32 -67 17 -55 38 -77 53
-54 4 7 11 12 16 11 4 -1 11 6 14 16 7 18 56 26 160 27 48 1 69 17 70 54 0 31
10 53 24 53 6 0 33 11 59 25 60 32 160 43 197 21 51 -29 133 -66 149 -66 19 0
81 -53 81 -69 0 -6 4 -11 9 -11 5 0 16 -3 25 -6 11 -4 16 0 16 14 0 11 13 34
30 50 24 24 42 31 89 37 63 7 81 3 81 -20 0 -7 6 -15 14 -18 10 -4 11 -17 5
-57 -4 -28 -11 -61 -14 -73 -18 -61 -19 -58 17 -54 19 2 39 7 46 11 7 4 12 2
12 -4 0 -6 3 -9 7 -7 5 3 33 8 63 12 30 4 58 9 61 10 10 7 153 35 174 35 11 0
34 7 50 16 17 9 41 17 55 19 47 4 49 5 44 19 -4 10 11 18 53 28 l58 14 3 49
c2 28 10 58 20 68 15 17 14 18 -6 24 -12 3 -22 9 -22 14 0 5 -7 9 -15 9 -8 0
-15 4 -15 9 0 5 30 7 68 6 71 -2 92 1 92 16 0 16 98 111 108 105 5 -3 18 8 30
24 15 20 18 30 9 33 -9 4 -9 7 0 14 15 10 9 13 -202 88 -163 58 -325 128 -325
140 0 20 111 -14 402 -121 153 -56 188 -65 150 -38 -23 16 -23 16 -3 30 11 8
21 28 23 47 2 22 10 35 26 42 12 5 25 19 28 30 14 50 28 75 42 75 8 0 27 13
41 28 30 34 51 43 106 49 37 4 76 23 47 23 -18 0 -1 30 48 80 22 23 40 46 40
51 0 5 11 7 24 3 19 -4 31 2 57 30 18 20 40 36 51 36 11 0 18 7 18 18 0 36 66
73 144 79 34 3 66 9 71 14 6 4 30 6 52 4 35 -4 43 -1 48 15 6 18 17 25 38 21
5 -1 26 4 47 10 27 8 40 19 44 35 8 29 16 30 49 4 24 -19 28 -20 63 -5 44 18
41 18 47 3 2 -7 3 0 1 16 -4 29 -4 29 14 8 17 -19 19 -19 29 -4 11 15 12 15
13 -3 1 -24 45 118 109 361 27 100 52 191 56 203 l6 21 -1720 0 -1721 0 0
-859z m1757 -833 c-3 -7 -5 -2 -5 12 0 14 2 19 5 13 2 -7 2 -19 0 -25z"/>
<path d="M5212 6173 c-18 -71 -68 -267 -111 -438 -57 -220 -77 -313 -69 -320
8 -7 9 -6 4 3 -5 8 0 12 14 12 14 0 19 -4 14 -12 -5 -9 -2 -9 9 1 15 12 17 10
17 -22 0 -20 -4 -38 -9 -41 -5 -3 -8 -22 -6 -41 2 -19 -1 -37 -6 -40 -12 -8
-12 -52 0 -59 5 -3 25 -7 45 -8 20 -2 36 -7 36 -11 0 -15 44 6 135 63 112 71
194 114 202 107 11 -12 -22 -40 -149 -124 -70 -46 -128 -86 -128 -89 0 -2 10
-2 23 1 18 5 22 2 23 -20 2 -24 -1 -26 -31 -23 -19 1 -37 -1 -41 -5 -4 -4 -1
-7 7 -7 11 0 11 -2 -1 -10 -10 -7 7 -10 59 -10 58 0 77 -4 87 -17 11 -15 15
-15 23 -5 4 8 17 12 27 9 17 -4 17 -6 -4 -12 -19 -6 -22 -13 -17 -34 3 -14 2
-21 -2 -14 -5 7 -14 9 -22 3 -9 -5 5 -12 45 -21 69 -16 84 -15 165 11 147 47
120 3 -37 -61 -58 -24 -107 -46 -109 -49 -2 -3 15 -5 37 -4 27 1 36 -1 27 -7
-12 -7 -12 -9 0 -9 11 0 9 -4 -5 -15 -17 -13 -17 -14 -1 -15 18 0 24 -25 7
-35 -24 -15 -7 -29 51 -40 27 -5 38 -15 16 -15 -10 0 -17 -7 -17 -16 0 -11 -6
-14 -21 -9 -15 5 -19 4 -14 -5 4 -7 17 -9 31 -6 20 5 23 3 21 -16 -2 -24 3
-26 96 -30 26 -1 47 -5 47 -10 0 -4 -8 -8 -19 -8 -38 0 -77 -20 -77 -40 0 -20
39 -40 77 -40 11 0 19 -4 19 -10 0 -5 -7 -10 -15 -10 -30 0 -14 -20 25 -30 22
-6 40 -17 40 -24 0 -15 24 -24 90 -32 25 -3 62 -10 84 -16 21 -5 68 -7 105 -4
67 5 48 -3 -43 -19 -21 -3 -36 -8 -34 -10 2 -2 67 -11 143 -19 77 -8 165 -20
195 -26 30 -7 102 -16 160 -20 58 -5 121 -12 141 -15 20 -4 39 -3 43 3 3 5 44
148 90 318 84 306 125 445 132 453 2 2 11 -2 21 -10 15 -12 16 -12 8 1 -6 12
-5 12 4 4 16 -15 196 -8 229 8 27 14 28 25 2 33 -27 8 -25 23 4 36 16 8 29 8
43 1 14 -8 36 -7 79 3 32 8 84 20 114 27 42 11 54 18 52 31 -2 10 6 19 22 23
13 3 26 14 29 24 4 14 -2 19 -27 23 -54 9 -310 0 -337 -11 -15 -6 -63 -10
-108 -9 -76 1 -81 2 -81 23 0 20 139 544 155 586 4 10 17 17 28 17 23 -1 40 2
103 20 98 28 138 26 220 -14 63 -29 90 -37 136 -36 32 0 62 2 67 5 5 3 24 0
42 -8 33 -13 56 -12 199 9 77 11 91 15 84 26 -3 6 -16 15 -28 20 -15 7 -8 7
24 2 25 -4 73 -7 108 -8 49 0 67 -4 76 -18 10 -13 29 -17 80 -18 48 -1 66 -5
66 -15 0 -7 9 -18 19 -24 26 -13 31 -13 31 3 0 21 22 37 39 28 9 -5 61 -4 116
1 55 4 110 8 123 8 12 0 22 5 22 11 0 25 49 61 90 66 30 4 41 3 36 -5 -8 -13
28 -35 39 -24 4 4 4 -9 0 -28 -7 -33 -132 -507 -177 -670 -11 -41 -23 -85 -25
-97 -4 -18 -12 -23 -34 -23 -20 0 -29 -5 -29 -16 0 -8 3 -13 8 -11 4 3 14 2
23 -2 15 -5 11 -27 -31 -186 -26 -99 -75 -286 -109 -415 -34 -129 -64 -245
-67 -258 -5 -18 -13 -22 -32 -20 -14 2 -27 -2 -29 -8 -4 -13 41 -24 98 -24 42
0 47 -9 30 -53 -15 -38 -101 -59 -101 -25 0 10 -8 18 -17 19 -110 3 -167 11
-195 25 -40 21 -92 22 -218 5 -116 -16 -202 -15 -246 4 -18 7 -41 12 -51 10
-10 -1 -27 3 -38 10 -18 11 -172 30 -202 25 -38 -6 -123 -2 -158 8 -25 7 -43
8 -49 2 -6 -6 -18 -10 -28 -10 -10 0 -18 -4 -18 -9 0 -5 29 -13 65 -16 36 -4
65 -12 65 -18 0 -6 3 -7 6 -4 4 3 16 1 27 -4 26 -14 6 -29 -40 -29 -72 0 -32
-34 52 -45 57 -6 708 -28 783 -26 19 1 55 -6 80 -14 43 -15 48 -15 98 5 41 17
57 19 72 11 28 -15 40 -14 44 3 2 12 6 13 21 1 14 -10 17 -21 12 -49 -7 -35
-8 -36 -54 -36 l-47 0 -18 -60 c-10 -33 -22 -60 -27 -60 -4 0 -6 -6 -3 -14 3
-7 -1 -16 -9 -19 -10 -4 -13 2 -11 21 2 15 1 20 -2 11 -4 -14 -13 -15 -50 -8
-25 5 -49 11 -54 14 -12 8 -148 -23 -183 -41 -16 -8 -45 -15 -65 -15 -24 -1
-29 -3 -14 -6 68 -13 -50 -41 -125 -29 -60 9 -242 6 -269 -4 -14 -6 -39 -10
-56 -10 -18 0 -58 -7 -90 -16 -43 -13 -58 -21 -58 -35 0 -10 -8 -23 -17 -29
-14 -9 -9 -10 22 -5 22 4 44 10 48 14 4 4 31 4 60 0 85 -14 221 -12 277 5 14
4 66 3 115 -2 103 -10 148 -3 177 28 29 31 66 43 100 31 19 -7 38 -7 55 0 14
5 35 6 47 2 48 -15 86 -10 86 12 0 9 17 14 50 17 35 2 50 -1 50 -9 0 -17 -58
-242 -108 -423 -22 -80 -68 -251 -101 -380 -33 -129 -83 -318 -111 -420 -49
-182 -61 -246 -39 -208 6 11 22 18 40 18 17 0 28 4 24 9 -6 11 25 31 48 31 8
0 17 -9 20 -20 4 -16 14 -20 52 -20 25 0 55 -5 67 -11 32 -17 68 -3 66 25 -1
15 -7 22 -16 19 -8 -3 -15 3 -19 15 -3 11 -10 19 -17 16 -6 -2 -30 -1 -51 4
l-40 9 47 8 c51 8 83 1 73 -15 -3 -5 -2 -10 4 -10 5 0 11 6 13 12 3 7 11 -1
19 -17 10 -20 21 -29 33 -27 23 4 48 -17 42 -35 -6 -16 0 -16 140 -2 60 6 113
15 119 20 5 5 23 9 41 9 18 0 34 6 37 13 3 9 9 9 23 1 14 -7 26 -7 44 3 14 7
33 13 43 13 9 0 17 5 17 10 0 6 -9 10 -20 10 -15 0 -20 7 -20 25 0 32 27 33
80 3 38 -22 40 -22 57 -5 17 18 17 18 -20 12 -33 -6 -36 -5 -31 10 6 14 15 16
45 12 22 -3 41 -1 44 4 3 5 35 18 71 29 54 16 73 18 112 9 79 -17 117 -38 94
-52 -4 -3 -8 -30 -10 -61 -3 -53 -2 -56 20 -55 13 0 17 3 11 6 -21 8 -15 23
13 33 19 8 31 7 41 -1 10 -9 20 -9 38 -1 15 7 26 8 30 2 8 -13 52 -13 60 0 10
16 44 11 54 -8 8 -15 20 -17 73 -14 35 2 65 6 67 7 2 2 10 -2 18 -10 13 -13
12 -18 -4 -38 -13 -16 -26 -21 -50 -19 -19 2 -33 -1 -33 -7 0 -6 7 -11 15 -11
8 0 15 -6 15 -14 0 -15 -36 -31 -89 -40 -30 -5 -33 -4 -28 15 5 20 3 21 -44
17 -27 -3 -52 -1 -56 5 -3 5 -9 3 -14 -5 -5 -10 -18 -14 -34 -10 -15 2 -25 0
-25 -7 0 -7 -5 -9 -10 -6 -6 4 -17 2 -24 -4 -7 -6 -22 -8 -31 -4 -14 5 -17 3
-12 -10 4 -11 1 -17 -9 -17 -8 0 -13 -4 -9 -9 3 -6 -4 -15 -15 -21 -11 -6 -19
-14 -19 -18 3 -20 -3 -32 -16 -32 -43 0 7 -33 100 -66 28 -10 51 -18 52 -19 2
-1 5 -21 8 -46 9 -68 14 -79 41 -79 13 0 24 5 24 10 0 6 9 10 20 10 10 0 23 7
28 16 5 9 12 15 16 14 12 -4 66 22 66 31 0 11 -3 11 -35 -1 -20 -8 -26 -7 -23
2 7 19 51 47 83 52 27 5 31 3 33 -21 2 -28 -61 -291 -103 -429 -22 -73 -30
-86 -58 -101 -18 -9 -55 -18 -83 -19 -27 -1 -63 -8 -80 -17 -35 -18 -89 -74
-62 -64 24 9 31 -7 10 -25 -11 -10 -45 -17 -95 -20 -86 -6 -82 -4 -91 -35 -6
-19 -4 -23 16 -23 13 0 29 -5 36 -12 8 -8 59 -11 161 -10 117 1 149 -2 145
-11 -2 -7 -18 -14 -35 -15 -17 -1 -44 -9 -61 -18 -33 -17 -58 -13 -58 11 0 15
-39 21 -100 16 -27 -2 -115 -45 -136 -66 -21 -21 22 -32 111 -29 44 2 94 4
110 4 17 0 54 5 84 10 29 5 57 8 61 5 10 -6 -20 -105 -32 -105 -4 0 -8 7 -8
15 0 18 -40 20 -40 3 -1 -7 -8 0 -16 15 -15 28 -17 29 -82 23 -94 -7 -95 -7
-112 -13 -28 -11 -95 -11 -101 -2 -6 11 -89 -11 -89 -23 0 -15 -88 -19 -131
-7 -24 7 -51 12 -59 11 -35 -6 -107 -1 -133 9 -22 9 -31 9 -40 0 -7 -7 -7 -12
-2 -11 22 5 36 -1 29 -11 -3 -6 -2 -14 4 -18 6 -3 -13 -7 -41 -8 -29 0 -62 -2
-75 -2 -13 -1 -20 -6 -17 -11 3 -6 -1 -13 -10 -16 -25 -10 -76 -64 -59 -64 8
0 14 5 14 12 0 12 15 2 15 -10 1 -17 18 -32 36 -32 10 0 19 -4 19 -8 0 -11
-66 -42 -89 -42 -10 0 -34 -6 -52 -14 -19 -7 -56 -14 -82 -15 -26 0 -51 -2
-55 -5 -5 -3 -14 -1 -21 4 -18 11 -79 -7 -105 -32 l-21 -20 50 6 c54 7 113 -4
105 -20 -7 -12 -244 -3 -258 10 -3 3 8 6 24 6 16 0 39 3 52 6 20 6 21 8 7 18
-17 12 -95 13 -114 2 -6 -4 -20 -4 -31 -1 -11 3 -32 -1 -47 -9 -29 -17 -180
-36 -220 -28 -13 2 -23 9 -23 16 0 9 57 228 120 465 27 100 27 101 -17 101
-20 0 -45 7 -55 16 -16 15 -26 16 -85 6 -48 -8 -71 -8 -80 0 -7 5 -19 8 -26 5
-8 -3 -20 -1 -28 3 -7 5 -18 5 -24 0 -6 -5 -22 -7 -36 -5 -13 3 -87 5 -164 4
-77 0 -164 0 -193 1 -49 1 -53 -1 -47 -19 3 -10 1 -22 -4 -26 -6 -3 -76 -10
-157 -14 -96 -6 -149 -13 -154 -21 -5 -8 -23 -11 -48 -8 -36 3 -41 1 -38 -16
4 -28 56 -43 156 -45 55 -1 90 -7 100 -16 8 -7 29 -19 45 -26 l30 -12 -40 -13
c-22 -7 -74 -13 -116 -13 -70 -1 -137 -19 -123 -33 12 -13 -113 -20 -408 -23
-172 -1 -321 -6 -331 -10 -14 -6 -20 -2 -24 14 -6 24 -54 30 -70 9 -12 -15
-313 -1110 -313 -1137 0 -8 936 -11 3310 -11 l3310 0 0 1283 c-1 1140 -2 1279
-16 1255 -8 -15 -28 -35 -44 -43 -24 -12 -30 -22 -30 -49 0 -32 -33 -76 -56
-76 -6 0 -26 -14 -45 -31 -19 -17 -61 -43 -95 -59 -76 -37 -114 -71 -114 -105
0 -28 -37 -66 -82 -86 -15 -6 -32 -23 -38 -38 -10 -25 -10 -25 -5 -1 2 14 5
31 5 38 0 7 15 19 34 27 38 16 66 49 66 78 0 24 40 77 59 78 12 0 10 3 -4 9
-18 8 -17 9 8 9 35 1 98 33 131 66 13 13 36 27 51 31 22 6 26 11 22 33 -5 24
-4 24 9 7 14 -20 15 -19 27 24 2 8 -2 21 -10 28 -15 16 -17 32 -3 32 6 0 10
-6 10 -14 0 -11 11 -8 40 11 22 15 40 32 40 39 0 7 9 22 20 32 20 18 20 29 18
297 l-3 278 -45 23 c-29 15 -54 21 -72 17 -24 -5 -28 -2 -28 16 0 11 -9 30
-20 41 -11 11 -20 29 -20 39 0 25 45 195 125 475 l65 229 0 660 c0 627 -1 659
-17 646 -17 -13 -17 -13 0 7 16 19 17 58 17 507 l0 487 -150 0 c-166 0 -150 7
-156 -70 -1 -19 -6 -57 -10 -83 -4 -29 -2 -57 4 -70 22 -45 31 -111 22 -149
-6 -21 -14 -53 -18 -71 -5 -18 -5 -43 -1 -55 5 -12 5 -32 0 -44 -12 -33 8
-110 37 -140 28 -30 29 -39 20 -175 -3 -56 0 -89 8 -105 8 -13 13 -57 14 -101
0 -76 1 -78 22 -71 21 6 21 6 4 -11 -11 -11 -15 -26 -12 -39 3 -12 6 -31 6
-43 0 -13 8 -24 20 -28 23 -7 60 -64 60 -92 0 -11 17 -40 39 -63 37 -41 61
-95 61 -139 0 -12 -11 -46 -24 -74 -20 -42 -25 -72 -28 -159 -3 -98 -6 -109
-26 -124 -41 -28 -23 -85 34 -109 35 -14 35 -15 29 -62 -4 -27 -9 -56 -12 -66
-8 -32 -28 -12 -37 38 -6 33 -18 56 -38 74 -42 38 -49 97 -15 136 21 26 26 44
32 134 6 79 13 115 31 151 13 27 24 53 24 59 0 23 -44 92 -71 112 -21 15 -31
32 -36 61 -6 43 -33 78 -58 78 -20 0 -34 29 -37 78 l-3 41 -25 -16 -25 -16 23
26 c15 16 22 34 20 51 -3 26 -3 26 -58 -24 -30 -27 -58 -50 -63 -50 -5 0 -5
-9 -2 -20 5 -17 2 -20 -27 -20 -40 0 -49 -6 -73 -47 -11 -18 -30 -37 -44 -41
-15 -5 -48 -29 -75 -53 -54 -48 -36 -47 -181 -3 -73 22 -131 28 -139 15 -10
-16 -107 -13 -130 4 -32 24 -189 20 -246 -6 -52 -24 -113 -26 -146 -4 -13 8
-45 15 -71 15 -32 0 -43 3 -34 9 18 12 66 6 116 -13 55 -21 79 -20 149 8 56
22 68 24 146 16 47 -5 106 -14 133 -21 34 -9 53 -9 70 -2 51 25 69 23 223 -27
46 -15 69 -12 90 12 10 11 38 33 62 48 23 16 56 46 72 69 18 24 38 41 50 41
10 0 24 9 30 20 6 11 16 20 21 20 6 0 34 22 63 50 l52 50 -2 180 c-2 165 -4
182 -23 206 -25 32 -37 76 -46 172 -5 62 -3 83 16 135 l22 63 -21 71 c-21 69
-23 105 -7 231 l4 32 -3207 0 -3208 0 -32 -127z m3078 -223 c12 -8 9 -10 -12
-10 -15 0 -30 5 -33 10 -8 13 25 13 45 0z m-1410 -773 c11 3 33 0 50 -5 22 -8
30 -8 30 1 0 8 3 8 11 0 25 -25 2 -39 -66 -41 -55 0 -66 2 -61 15 3 8 6 22 7
31 0 9 3 12 5 6 3 -7 14 -10 24 -7z m4441 -350 c-10 -9 -11 -8 -5 6 3 10 9 15
12 12 3 -3 0 -11 -7 -18z m-5697 -132 c-7 -17 -7 -17 -28 -9 -24 9 -19 24 9
24 18 0 23 -4 19 -15z m5623 -127 c-3 -8 -6 -5 -6 6 -1 11 2 17 5 13 3 -3 4
-12 1 -19z m88 -8 c-10 -11 -22 -20 -28 -20 -5 0 1 9 14 20 31 25 37 25 14 0z
m-62 -28 c2 7 7 10 11 7 3 -3 -2 -13 -13 -23 -18 -16 -19 -16 -24 11 -5 25 -4
26 8 10 10 -13 14 -15 18 -5z m-2965 -693 c-2 -6 -7 -10 -11 -10 -4 1 -14 1
-23 1 -8 0 -12 5 -9 10 8 13 48 13 43 -1z m-361 -25 c-3 -3 -12 -4 -19 -1 -8
3 -5 6 6 6 11 1 17 -2 13 -5z m37 -9 c-4 -8 -13 -15 -21 -15 -13 0 -13 3 -3
15 7 8 16 15 21 15 5 0 6 -7 3 -15z m46 6 c-15 -4 -24 -14 -24 -24 1 -9 -2
-17 -7 -17 -13 0 -11 24 3 38 7 7 21 12 33 11 17 -1 16 -2 -5 -8z m43 -18 c-7
-2 -19 -2 -25 0 -7 3 -2 5 12 5 14 0 19 -2 13 -5z m-118 -23 c-27 -12 -43 -12
-25 0 8 5 22 9 30 9 10 0 8 -3 -5 -9z m2151 -208 c14 -13 87 -32 119 -32 16 0
43 5 62 12 28 10 38 9 71 -10 33 -18 43 -20 75 -10 56 17 114 -3 132 -47 18
-42 85 -96 116 -93 16 2 24 -3 27 -17 10 -49 125 -114 202 -115 14 0 43 -11
65 -25 22 -13 49 -25 61 -25 11 0 24 -3 28 -7 13 -13 198 -2 246 13 45 16 110
69 110 92 0 7 14 18 31 24 16 6 28 13 25 16 -7 7 36 38 48 34 4 -1 22 8 40 21
17 13 45 31 63 40 17 9 38 24 47 32 11 11 16 12 16 4 0 -7 8 -3 18 8 14 16 52
28 52 16 0 -5 -90 -358 -110 -428 -72 -261 -114 -395 -124 -395 -5 0 9 65 18
79 4 6 2 11 -4 11 -8 0 -10 10 -6 28 4 15 3 22 -1 15 -6 -8 -18 -2 -42 23 -19
19 -41 34 -50 34 -14 0 -14 2 -1 10 13 9 13 10 0 10 -13 0 -13 1 0 10 12 8 10
10 -10 11 -14 1 -31 1 -39 0 -7 -2 -10 2 -6 8 12 21 -14 11 -31 -11 -15 -20
-16 -21 -10 -3 5 17 4 18 -6 4 -13 -16 -78 -43 -78 -32 0 3 -9 -2 -20 -12 -13
-11 -44 -21 -87 -25 -38 -4 -85 -16 -106 -28 -54 -29 -148 -38 -180 -18 -38
25 -131 25 -159 -1 -13 -11 -36 -24 -53 -27 -16 -4 -37 -14 -45 -21 -9 -8 -37
-24 -63 -35 -45 -20 -50 -20 -101 -6 -29 9 -59 23 -66 31 -7 8 -17 15 -23 15
-6 0 -18 7 -28 16 -17 15 -99 26 -179 25 -121 -3 -174 1 -195 15 -16 11 -34
13 -59 8 -24 -4 -36 -2 -36 5 0 15 75 14 103 -1 27 -14 144 -18 172 -6 14 6
34 5 60 -4 28 -10 48 -11 66 -4 23 8 36 3 90 -33 87 -58 140 -69 200 -42 26
12 49 28 53 36 3 8 14 15 25 15 10 0 44 13 74 29 58 30 72 30 174 0 43 -13
132 0 162 22 28 22 97 43 111 34 19 -12 69 5 63 21 -4 10 0 12 13 7 13 -5 15
-3 9 7 -6 10 -2 12 19 8 19 -4 26 -2 22 7 -5 14 12 35 28 35 5 0 2 -6 -9 -13
-10 -8 -14 -17 -8 -20 5 -4 16 5 23 18 7 14 18 25 24 25 6 0 20 8 31 16 16 13
17 15 3 12 -9 -2 -16 2 -15 7 1 6 6 9 12 7 5 -2 2 5 -7 15 -10 10 -32 35 -50
56 -17 22 -42 43 -55 48 -14 5 -21 13 -18 19 3 6 -1 7 -9 4 -9 -3 -16 -2 -16
2 0 5 -12 10 -27 11 -126 12 -154 19 -218 54 -29 16 -61 29 -72 29 -22 0 -94
25 -137 47 -36 18 -66 50 -66 70 0 7 -8 13 -19 13 -29 0 -110 68 -125 105 -11
27 -22 35 -50 40 -19 4 -51 2 -70 -5 -31 -10 -40 -8 -75 12 -35 20 -43 21 -73
10 -19 -6 -45 -12 -58 -12 -32 0 -100 21 -135 42 -25 15 -27 18 -9 18 11 0 24
-4 30 -8z m1684 -990 c0 -4 -18 -6 -40 -4 -22 2 -40 6 -40 8 0 2 18 4 40 4 22
0 40 -3 40 -8z m-113 -34 c-3 -8 -6 -5 -6 6 -1 11 2 17 5 13 3 -3 4 -12 1 -19z
m-62 -27 c-3 -5 -1 -12 5 -16 12 -7 4 -25 -11 -25 -10 0 -12 33 -2 43 9 10 15
8 8 -2z m211 -36 c10 -8 14 -15 7 -15 -6 0 -15 5 -18 10 -4 6 -11 8 -16 5 -5
-4 -9 -1 -9 4 0 15 13 14 36 -4z m-3496 -35 c0 -5 -10 -10 -22 -10 -19 0 -20
2 -8 10 19 13 30 13 30 0z m207 -5 c-4 -8 -2 -17 2 -20 5 -3 7 -14 4 -25 l-6
-21 -14 21 c-8 11 -11 25 -7 31 3 6 0 15 -7 20 -10 6 -8 9 10 9 16 0 21 -4 18
-15z m-384 -30 c1 -5 -6 -11 -15 -13 -11 -2 -18 3 -18 13 0 17 30 18 33 0z
m1411 0 c-7 -17 -20 -20 -28 -6 -4 5 0 12 6 14 23 9 28 7 22 -8z m-944 -5 c0
-5 -2 -10 -4 -10 -3 0 -8 5 -11 10 -3 6 -1 10 4 10 6 0 11 -4 11 -10z m3120
-60 c0 -5 -2 -10 -4 -10 -3 0 -8 5 -11 10 -3 6 -1 10 4 10 6 0 11 -4 11 -10z
m120 -10 c0 -5 -5 -10 -11 -10 -5 0 -7 5 -4 10 3 6 8 10 11 10 2 0 4 -4 4 -10z
m-2057 -47 c-7 -2 -21 -2 -30 0 -10 3 -4 5 12 5 17 0 24 -2 18 -5z m100 -20
c-7 -2 -19 -2 -25 0 -7 3 -2 5 12 5 14 0 19 -2 13 -5z m63 -19 c18 -14 18 -14
-6 -3 -31 14 -36 19 -24 19 6 0 19 -7 30 -16z m1450 -39 c-11 -35 -22 -44 -77
-72 -35 -18 -70 -32 -77 -32 -8 -1 -40 -21 -72 -45 -71 -54 -88 -60 -139 -46
-28 7 -67 7 -129 0 -78 -9 -105 -7 -192 10 -56 11 -119 20 -141 20 -65 0 -181
21 -224 40 -22 10 -85 28 -140 40 -55 12 -107 26 -115 31 -8 5 -28 16 -45 24
-16 8 -41 24 -55 36 l-25 21 25 -16 c14 -9 39 -23 55 -31 17 -8 37 -19 45 -24
8 -5 60 -19 115 -31 55 -13 120 -31 145 -41 47 -19 107 -29 200 -34 30 -1 100
-11 155 -20 105 -18 174 -20 240 -5 25 6 55 5 82 -2 56 -14 79 -6 133 42 25
22 56 43 70 47 67 17 131 54 141 80 11 29 30 56 35 50 2 -1 -3 -21 -10 -42z
m48 -230 c-4 -8 -8 -15 -10 -15 -2 0 -4 7 -4 15 0 8 4 15 10 15 5 0 7 -7 4
-15z m-2214 -565 c0 -5 -12 -10 -27 -9 -25 0 -26 1 -8 9 27 12 35 12 35 0z
m130 -3 c0 -14 -67 -38 -87 -30 -9 4 -6 10 10 24 25 21 77 25 77 6z m-70 -67
c-8 -5 -28 -9 -45 -9 -29 1 -29 1 -5 9 14 4 34 8 45 9 16 1 17 -1 5 -9z m-605
-265 c0 -5 -15 -11 -32 -13 -25 -3 -33 1 -33 13 0 12 8 16 33 13 17 -2 32 -7
32 -13z m-2845 -15 c0 -5 -18 -10 -41 -10 -24 0 -38 4 -34 10 3 6 22 10 41 10
19 0 34 -4 34 -10z m60 0 c0 -5 -7 -10 -15 -10 -8 0 -15 5 -15 10 0 6 7 10 15
10 8 0 15 -4 15 -10z m2920 -25 c0 -9 -9 -15 -24 -15 -30 0 -43 17 -19 23 34
9 43 7 43 -8z m-2900 -25 c41 -2 42 -3 15 -9 -18 -5 48 -11 160 -15 105 -4
219 -12 255 -17 36 -5 86 -9 112 -9 47 0 79 -19 36 -21 -13 -1 2 -6 32 -11 74
-12 90 -12 128 -3 20 5 32 4 32 -3 0 -5 -17 -12 -37 -15 -21 -3 -53 -9 -70
-13 -26 -5 -33 -3 -33 8 0 13 -8 14 -50 6 -32 -6 -85 -5 -145 1 -121 14 -238
14 -230 1 3 -6 -4 -10 -17 -10 -16 0 -19 -3 -10 -9 11 -6 9 -9 -7 -14 -11 -2
-22 -3 -24 0 -3 2 -58 6 -124 8 -65 3 -140 7 -168 10 -31 3 -43 2 -30 -3 18
-8 18 -9 -5 -13 -38 -7 -62 1 -58 19 2 9 14 19 28 23 21 6 22 7 4 8 -17 1 -20
6 -16 34 7 57 16 59 222 47z m2486 -4 c21 -22 17 -26 -26 -26 -44 0 -53 15
-17 30 12 5 23 9 25 9 2 1 10 -5 18 -13z m466 -58 c-10 -10 -77 -37 -94 -38
-18 0 6 30 30 39 40 14 79 14 64 -1z m-442 -97 c0 -21 -32 -30 -123 -33 -53
-2 -97 -6 -97 -10 0 -5 -17 -8 -37 -8 -26 0 -34 3 -26 11 5 5 19 11 31 12 11
0 20 6 19 12 -1 5 21 13 48 16 81 10 185 10 185 0z m180 -31 c-8 -5 -28 -9
-45 -9 -29 1 -29 1 -5 9 14 4 34 8 45 9 16 1 17 -1 5 -9z m-860 -220 c62 -5
73 -8 40 -9 l-45 -3 33 -10 c17 -6 32 -15 32 -20 0 -5 4 -7 9 -4 5 3 14 -1 21
-9 11 -13 7 -15 -23 -15 -28 0 -35 3 -31 15 5 12 -2 15 -28 15 -19 0 -39 -5
-45 -11 -9 -9 -47 -9 -149 0 -75 6 -139 13 -142 15 -2 3 -1 17 2 32 l7 27 117
-8 c64 -4 155 -10 202 -15z m193 -35 c1 -5 -18 -11 -43 -12 -25 -1 -36 1 -25
4 11 3 24 9 30 14 12 12 35 8 38 -6z"/>
<path d="M6035 918 c17 -6 36 -15 43 -21 7 -5 15 -7 19 -3 3 3 0 6 -8 6 -10 1
-8 5 5 15 18 14 15 15 -35 14 -50 -1 -52 -1 -24 -11z"/>
<path d="M2698 5573 c12 -2 30 -2 40 0 9 3 -1 5 -23 4 -22 0 -30 -2 -17 -4z"/>
<path d="M5013 5373 c-7 -15 -11 -29 -8 -31 3 -3 5 0 5 8 0 10 3 10 15 0 12
-10 15 -10 14 1 0 8 -3 22 -7 31 -6 14 -9 13 -19 -9z"/>
<path d="M2145 5110 c-3 -5 -1 -10 4 -10 6 0 11 5 11 10 0 6 -2 10 -4 10 -3 0
-8 -4 -11 -10z"/>
<path d="M2065 4990 c3 -5 8 -10 11 -10 2 0 4 5 4 10 0 6 -5 10 -11 10 -5 0
-7 -4 -4 -10z"/>
<path d="M6585 4291 c-3 -6 -15 -11 -26 -11 -10 0 -24 -9 -31 -20 -7 -11 -20
-20 -28 -20 -12 0 -12 -2 -2 -9 11 -7 11 -15 0 -50 -17 -50 -94 -105 -145
-104 -19 1 -33 -4 -33 -10 0 -15 180 -13 207 1 20 11 45 77 63 165 11 56 9 80
-5 58z"/>
<path d="M1167 4224 c-2 -5 -17 -54 -32 -109 -14 -55 -31 -113 -36 -130 -26
-82 -196 -714 -224 -835 -7 -30 -18 -68 -24 -83 -13 -34 -14 -84 -2 -91 5 -4
7 2 5 11 -3 10 2 27 10 38 9 11 16 14 16 8 0 -18 18 -16 37 3 10 9 25 13 37
10 12 -3 31 -6 44 -6 19 0 22 -4 17 -20 -5 -15 1 -22 27 -33 37 -16 47 -11 71
36 12 24 16 25 27 12 10 -12 10 -15 -4 -15 -9 0 -16 -8 -16 -19 0 -17 5 -18
43 -14 56 7 170 70 163 90 -3 8 -6 17 -6 19 0 2 -7 4 -15 4 -9 0 -12 6 -8 16
6 16 7 16 18 0 21 -28 35 -18 35 23 0 25 -5 41 -15 45 -19 7 -19 40 -1 55 8 7
12 20 9 31 -8 30 16 92 34 86 8 -3 27 1 42 9 30 15 49 47 32 53 -16 5 -13 22
4 22 8 0 19 9 25 21 7 12 18 18 26 15 11 -4 14 4 14 33 0 49 8 71 26 71 8 0
14 5 14 12 0 6 3 8 7 5 11 -11 33 14 33 38 0 13 4 25 9 27 4 2 11 20 15 41 6
30 4 37 -9 37 -8 0 -15 3 -15 8 0 4 -3 17 -6 29 -5 18 -1 25 17 32 18 7 19 10
7 10 -19 1 -26 31 -8 31 6 0 10 11 10 25 0 14 -5 25 -11 25 -6 0 -1 9 12 20
l24 20 -24 20 c-13 11 -17 20 -10 20 10 0 10 3 1 12 -7 7 -12 25 -12 40 0 15
-4 28 -9 28 -4 0 -21 18 -36 40 -17 24 -35 40 -44 38 -17 -4 -31 5 -59 35 -9
10 -31 17 -52 17 -19 0 -74 6 -122 14 -49 7 -88 10 -88 7 0 -3 -4 0 -9 8 -5 7
-11 9 -14 5z m63 -1175 c0 -5 -7 -9 -15 -9 -8 0 -15 -4 -15 -10 0 -5 -7 -10
-15 -10 -14 0 -13 3 2 24 17 22 43 25 43 5z m-160 -19 c0 -5 -7 -10 -15 -10
-8 0 -15 5 -15 10 0 6 7 10 15 10 8 0 15 -4 15 -10z"/>
<path d="M375 4203 c-35 -7 -66 -26 -61 -39 6 -14 -21 -27 -36 -17 -6 3 -8 2
-5 -4 4 -5 -3 -19 -13 -31 -17 -18 -29 -20 -76 -17 -48 4 -57 2 -61 -14 -4
-16 -14 -19 -61 -18 l-57 2 -3 -92 -2 -92 50 -23 c46 -21 64 -38 40 -38 -5 0
-10 -9 -10 -20 0 -11 4 -20 9 -20 4 0 25 -11 45 -25 33 -22 39 -24 52 -10 9 8
26 18 40 21 19 5 24 13 24 39 0 41 18 55 36 29 29 -42 36 -46 68 -40 17 4 43
6 57 6 15 0 29 7 33 15 3 8 12 15 19 15 8 0 26 9 40 20 22 17 26 28 23 59 -2
21 -6 43 -10 49 -4 7 4 24 17 38 20 22 23 32 17 55 -8 27 -6 33 13 30 4 0 7 4
7 9 0 15 -17 12 -46 -6 -19 -13 -30 -14 -47 -6 -12 6 -16 11 -9 11 17 1 15 40
-3 47 -9 4 -13 13 -10 24 9 28 -34 51 -80 43z"/>
<path d="M6314 4168 c-3 -5 -1 -8 5 -8 6 0 8 -7 5 -15 -7 -16 11 -21 21 -5 3
5 32 12 65 16 33 4 60 10 60 14 0 10 -150 7 -156 -2z"/>
<path d="M8240 4032 c0 -12 31 -32 49 -32 6 0 11 7 11 16 0 11 -5 14 -16 10
-9 -4 -23 -1 -30 5 -10 8 -14 8 -14 1z"/>
<path d="M6062 3989 c-13 -5 -29 -6 -34 -2 -6 3 -8 1 -4 -5 3 -6 14 -11 24
-10 157 2 354 -5 339 -13 -26 -15 -20 -30 10 -26 15 2 29 12 34 24 7 20 3 21
-119 27 -70 3 -149 8 -177 11 -27 2 -61 0 -73 -6z"/>
<path d="M6275 3940 c3 -5 21 -10 40 -10 19 0 37 5 40 10 4 6 -12 10 -40 10
-28 0 -44 -4 -40 -10z"/>
<path d="M453 3778 c2 -7 10 -12 17 -10 8 2 10 -4 6 -15 -5 -16 -5 -16 9 1 17
23 11 36 -16 36 -12 0 -19 -5 -16 -12z"/>
<path d="M7916 3701 c-4 -5 3 -7 14 -4 23 6 26 13 6 13 -8 0 -17 -4 -20 -9z"/>
<path d="M7000 3667 c0 -11 59 -41 67 -34 1 2 -6 13 -17 25 -23 24 -50 29 -50
9z"/>
<path d="M7927 3589 c7 -7 15 -10 18 -7 3 3 -2 9 -12 12 -14 6 -15 5 -6 -5z"/>
<path d="M7582 3581 c-9 -6 -8 -12 8 -26 20 -18 24 -13 12 17 -4 11 -12 14
-20 9z"/>
<path d="M8005 3580 c-3 -5 -12 -7 -20 -3 -8 3 -15 0 -15 -7 0 -6 -4 -9 -9 -6
-4 3 -7 -12 -6 -34 3 -48 -16 -58 -65 -34 -44 22 -110 30 -110 13 0 -7 -3 -10
-6 -6 -4 3 -13 -1 -21 -9 -11 -11 -19 -12 -28 -4 -9 8 -14 6 -18 -9 -6 -26
-58 -26 -64 0 -3 11 -9 19 -13 19 -5 0 -6 -9 -3 -20 3 -11 0 -20 -6 -20 -10 0
-16 29 -12 53 1 5 -3 6 -8 3 -5 -3 -7 -15 -4 -26 3 -11 0 -20 -6 -20 -8 0 -7
-6 1 -20 27 -43 -43 -90 -82 -55 -16 15 -20 15 -20 3 0 -11 -8 -13 -32 -10
-18 2 -38 9 -45 14 -8 6 -18 6 -30 -1 -13 -7 -22 -6 -33 4 -8 7 -25 16 -37 19
-19 6 -23 4 -23 -16 0 -19 -2 -20 -10 -8 -6 9 -13 11 -17 5 -10 -13 -225 -20
-528 -17 -55 1 -120 1 -145 2 -85 0 -155 8 -182 18 -27 11 -27 11 -47 -56 -11
-37 -40 -146 -66 -242 -25 -96 -55 -208 -66 -248 -11 -40 -17 -77 -15 -81 6
-9 101 -27 221 -42 98 -12 92 -12 135 -2 49 11 98 5 102 -14 2 -8 21 -22 43
-30 37 -14 73 -20 243 -42 37 -5 74 -11 82 -15 8 -3 65 -10 125 -15 61 -5 123
-13 138 -17 17 -4 38 -2 51 6 19 10 29 9 52 -2 17 -9 51 -14 83 -12 39 2 58
-2 65 -12 8 -10 44 -15 141 -19 72 -2 135 -5 140 -6 6 0 -17 -6 -49 -13 -33
-7 -89 -11 -125 -8 -36 2 -83 0 -103 -6 -21 -6 -38 -7 -38 -2 0 4 -7 11 -16
14 -10 4 -13 2 -8 -6 5 -8 0 -9 -17 -3 -13 4 -44 7 -69 6 -121 -5 -161 -3
-175 9 -8 6 -13 15 -12 18 3 9 -7 12 -34 12 -14 0 -19 -5 -16 -14 7 -18 -33
-13 -45 6 -4 7 -8 9 -8 4 0 -5 -7 -3 -15 4 -15 13 -65 6 -65 -9 0 -4 -11 -6
-25 -3 -14 2 -25 8 -25 13 0 10 -70 12 -94 3 -9 -3 -13 -10 -10 -16 3 -5 -3
-4 -14 3 -17 10 -23 10 -37 -4 -9 -9 -28 -17 -43 -18 -15 0 -22 -3 -15 -5 7
-3 9 -12 6 -20 -3 -8 0 -14 6 -14 6 0 11 5 11 10 0 6 5 10 12 10 6 0 8 -3 5
-6 -4 -4 3 -15 14 -25 l21 -18 -26 -12 c-14 -7 -26 -15 -26 -19 0 -4 -18 -10
-40 -14 -23 -3 -39 -10 -36 -15 3 -4 -6 -6 -19 -3 -14 2 -32 -1 -40 -8 -8 -6
-19 -9 -25 -5 -18 11 -90 -5 -90 -21 0 -12 -34 -14 -225 -11 -124 2 -225 2
-225 0 0 -1 -14 -52 -30 -113 -38 -141 -38 -141 0 -127 25 10 33 9 40 -3 13
-22 218 -30 365 -15 96 10 88 9 100 16 17 10 107 11 101 1 -6 -10 74 -10 91 1
6 4 16 0 23 -8 8 -10 18 -11 35 -5 28 11 275 9 275 -2 0 -5 -15 -8 -32 -8 -40
0 -71 -16 -48 -24 18 -6 543 -31 645 -31 l69 0 64 245 c35 135 68 259 74 275
31 92 258 941 258 968 0 7 -87 47 -104 47 -8 0 -17 -4 -21 -10z m-757 -1118
l40 3 -14 -27 c-17 -32 -74 -65 -74 -42 0 17 -14 17 -60 -1 l-35 -13 39 -1
c49 -1 44 -7 -12 -14 -24 -3 -40 -1 -36 4 3 5 0 9 -5 9 -6 0 -11 -4 -11 -9 0
-17 -56 -23 -210 -21 -163 1 -301 17 -171 19 36 0 78 5 95 10 17 5 51 15 76
23 25 7 51 18 58 25 18 18 32 16 32 -3 0 -11 5 -14 16 -10 9 3 28 9 42 13 23
5 24 7 7 13 -11 4 19 10 70 14 50 3 92 11 94 17 2 8 6 7 11 -1 5 -8 23 -11 48
-8z m111 -338 c17 -16 -28 -20 -174 -15 -60 2 -25 18 43 20 30 0 58 3 61 6 5
6 62 -4 70 -11z m174 9 c-7 -2 -21 -2 -30 0 -10 3 -4 5 12 5 17 0 24 -2 18 -5z"/>
<path d="M6880 2390 c0 -5 5 -10 11 -10 5 0 7 5 4 10 -3 6 -8 10 -11 10 -2 0
-4 -4 -4 -10z"/>
<path d="M6813 2373 c9 -2 23 -2 30 0 6 3 -1 5 -18 5 -16 0 -22 -2 -12 -5z"/>
<path d="M7846 3555 c4 -8 10 -12 15 -9 14 8 10 24 -6 24 -9 0 -12 -6 -9 -15z"/>
<path d="M7556 3536 c3 -9 11 -16 16 -16 13 0 5 23 -10 28 -7 2 -10 -2 -6 -12z"/>
<path d="M395 3350 c5 -14 2 -18 -7 -15 -8 3 -25 -6 -38 -21 l-25 -26 22 -17
c15 -12 18 -22 12 -32 -15 -24 -10 -54 12 -67 19 -12 20 -11 14 7 -4 12 -2 21
4 21 6 0 11 -11 11 -23 0 -28 35 -66 42 -45 3 9 23 12 68 10 79 -4 125 17 134
61 3 16 3 34 -1 40 -3 6 -1 7 5 3 7 -4 12 -2 12 3 0 6 5 11 10 11 6 0 10 -8
10 -17 0 -13 3 -14 12 -5 10 10 6 18 -17 37 -17 13 -39 24 -50 25 -32 0 -64
-11 -68 -24 -2 -6 -2 -1 0 12 2 16 -1 22 -16 22 -11 0 -31 14 -44 30 -21 24
-33 30 -67 30 -37 0 -41 -2 -35 -20z"/>
<path d="M1410 3336 c0 -2 7 -9 15 -16 12 -10 15 -10 15 4 0 9 -7 16 -15 16
-8 0 -15 -2 -15 -4z"/>
<path d="M1360 3275 c0 -8 7 -15 16 -15 14 0 14 3 4 15 -7 8 -14 15 -16 15 -2
0 -4 -7 -4 -15z"/>
<path d="M742 2991 c1 -17 -4 -37 -11 -45 -14 -16 -16 -25 -76 -244 -25 -90
-45 -171 -45 -180 0 -9 -10 -44 -21 -77 -21 -61 -31 -97 -73 -260 -41 -158
-42 -142 8 -143 l44 -1 22 82 c11 45 25 93 30 107 5 14 14 48 20 75 6 28 13
61 15 75 4 19 3 21 -5 10 -7 -11 -10 -11 -10 -2 0 7 -4 11 -9 8 -5 -3 -12 2
-15 11 -4 9 -2 20 4 23 8 5 7 9 -3 13 -10 4 -13 13 -10 27 4 16 8 18 14 8 7
-10 9 -9 9 5 0 15 3 15 20 5 29 -19 37 -5 76 128 46 159 76 265 79 284 1 8 8
14 15 12 18 -4 4 44 -20 68 -11 11 -20 19 -21 18 0 -2 -2 -11 -4 -21 -6 -32
-15 -32 -15 1 0 17 -4 33 -9 37 -5 3 -9 -8 -9 -24z"/>
<path d="M931 2991 c-11 -7 -9 -10 8 -16 11 -3 21 -13 21 -21 0 -21 17 -17 23
6 3 13 0 20 -9 20 -8 0 -14 5 -14 10 0 12 -10 13 -29 1z"/>
<path d="M1010 2976 c0 -2 7 -6 15 -10 8 -3 15 -1 15 4 0 6 -7 10 -15 10 -8 0
-15 -2 -15 -4z"/>
<path d="M1 2665 c-1 -168 3 -305 7 -305 4 0 18 9 32 20 14 11 32 20 41 20 41
0 47 52 12 92 -9 10 -13 24 -10 33 8 18 -4 20 -21 3 -18 -18 -32 6 -32 55 0
26 4 37 15 37 8 0 15 7 15 15 0 8 5 15 10 15 6 0 10 9 10 20 0 11 5 17 13 15
15 -6 59 59 52 77 -6 16 44 48 73 48 25 0 42 20 39 48 -2 26 -26 36 -67 27
-19 -4 -30 -3 -30 4 0 6 -9 11 -20 11 -11 0 -26 12 -34 29 -15 28 -40 41 -83
41 l-22 0 0 -305z m189 169 c0 -2 -7 -4 -15 -4 -8 0 -15 4 -15 10 0 5 7 7 15
4 8 -4 15 -8 15 -10z m-90 -58 c0 -3 -4 -8 -10 -11 -5 -3 -10 -1 -10 4 0 6 5
11 10 11 6 0 10 -2 10 -4z m-3 -72 c-3 -3 -12 -4 -19 -1 -8 3 -5 6 6 6 11 1
17 -2 13 -5z"/>
<path d="M1040 2930 c0 -5 4 -10 9 -10 6 0 13 5 16 10 3 6 -1 10 -9 10 -9 0
-16 -4 -16 -10z"/>
<path d="M880 2876 c0 -9 7 -16 16 -16 9 0 14 5 12 12 -6 18 -28 21 -28 4z"/>
<path d="M855 2830 c-3 -5 1 -10 9 -10 9 0 16 5 16 10 0 6 -4 10 -9 10 -6 0
-13 -4 -16 -10z"/>
<path d="M4331 2840 c-3 -6 -1 -1 -165 -595 -70 -253 -150 -543 -177 -645 -76
-281 -265 -978 -304 -1125 -19 -72 -55 -205 -80 -298 -25 -92 -45 -169 -45
-172 0 -3 22 -5 48 -5 l48 0 13 53 c7 28 30 115 51 192 37 136 60 226 245 930
79 300 194 732 281 1055 71 263 106 411 99 418 -3 3 -5 -3 -5 -13 0 -14 -3
-15 -14 -6 -15 13 -19 101 -4 101 4 0 8 -9 8 -21 0 -11 5 -17 10 -14 6 3 10 1
10 -6 0 -23 10 -2 24 50 7 28 10 51 5 51 -4 0 -10 -8 -12 -17 -3 -10 -6 -2 -7
17 -1 29 -3 31 -10 15 -7 -18 -8 -16 -12 10 -3 17 -6 28 -7 25z"/>
<path d="M4736 2538 c5 -7 2 -9 -8 -5 -9 3 -24 -3 -34 -14 -9 -10 -23 -19 -31
-19 -8 0 -12 -4 -9 -9 6 -10 -29 -87 -45 -96 -6 -4 -13 2 -16 14 -8 30 -33 27
-33 -4 0 -16 -6 -25 -15 -25 -8 0 -15 -4 -15 -9 0 -14 18 -23 22 -12 1 5 9 3
16 -5 11 -12 7 -14 -23 -14 -19 0 -35 -4 -35 -9 0 -12 -35 -20 -50 -11 -9 6
-8 9 6 13 12 3 7 5 -13 6 -26 1 -32 -3 -35 -21 -2 -13 -9 -22 -15 -21 -7 2 -9
-13 -7 -45 7 -66 10 -72 39 -72 27 0 48 -31 27 -38 -16 -5 -15 -19 1 -19 28 0
126 -55 121 -68 -3 -7 2 -15 11 -19 9 -3 13 -11 9 -18 -5 -8 -2 -9 11 -5 11 5
22 1 31 -10 9 -13 16 -15 24 -7 8 8 21 2 47 -23 20 -18 41 -33 46 -33 5 0 29
14 54 30 43 29 45 30 68 13 14 -10 25 -21 25 -25 0 -15 53 -8 66 10 8 9 14 12
14 5 0 -8 11 -11 30 -8 17 2 30 -1 30 -6 0 -6 9 -7 20 -4 15 5 20 2 20 -12 0
-14 2 -15 9 -4 7 11 11 10 21 -5 10 -16 11 -16 6 -1 -4 12 0 17 13 17 10 0 24
7 31 15 10 12 15 12 36 -2 13 -8 24 -20 24 -25 0 -5 6 -16 14 -24 11 -10 15
-11 19 -1 9 24 29 -10 33 -57 3 -36 0 -46 -12 -46 -8 0 -12 -4 -9 -10 3 -5 1
-10 -6 -10 -8 0 -8 -4 1 -15 15 -19 39 -19 46 -1 7 17 75 16 97 -2 9 -8 13
-20 10 -28 -3 -8 -2 -22 1 -31 6 -14 9 -15 15 -4 6 9 14 10 22 5 8 -5 24 -7
37 -5 26 3 30 -15 5 -22 -14 -4 -13 -5 3 -6 12 0 25 6 28 15 5 12 12 9 35 -16
27 -30 31 -32 72 -23 52 11 96 -3 91 -28 -2 -12 6 -18 26 -21 24 -3 28 -1 24
14 -3 13 0 17 10 13 12 -5 17 4 22 36 4 24 12 49 18 56 7 9 7 13 0 13 -6 0
-17 -12 -24 -27 -11 -23 -20 -27 -43 -25 -17 1 -38 12 -47 23 -10 11 -22 18
-27 15 -11 -7 -26 11 -36 44 -4 13 -14 30 -21 38 -8 7 -14 23 -14 35 0 18 -2
19 -10 7 -7 -11 -10 -6 -10 20 0 27 -6 38 -25 46 -20 10 -26 9 -37 -7 -18 -26
-61 -30 -66 -6 -2 10 3 26 12 36 15 17 15 19 -8 36 -20 15 -23 23 -15 42 5 13
5 23 1 23 -4 0 0 4 8 10 12 7 12 12 -4 29 -12 14 -16 28 -12 45 3 14 2 27 -3
31 -6 3 -6 17 -1 35 5 18 5 32 -1 35 -15 10 -11 20 27 59 25 25 43 36 55 33
25 -7 39 21 28 52 -7 18 -13 21 -21 13 -7 -7 -17 -8 -29 -2 -18 10 -52 3 -45
-9 2 -3 -13 -5 -35 -3 -32 3 -38 1 -33 -11 4 -12 -3 -18 -28 -25 -18 -5 -38
-5 -44 -1 -6 5 -29 9 -50 9 -21 0 -52 2 -69 3 -16 1 -32 -1 -35 -5 -3 -4 -23
-9 -45 -11 -22 -2 -40 -9 -40 -15 0 -15 -13 -26 -33 -27 -9 -1 -32 -2 -49 -3
-18 -1 -33 -7 -33 -12 0 -6 6 -10 13 -9 30 4 41 -1 30 -12 -6 -6 -9 -26 -6
-45 4 -24 2 -34 -7 -34 -8 0 -22 -8 -33 -17 -15 -13 -18 -14 -12 -3 6 10 2 9
-12 -3 -18 -16 -24 -17 -42 -5 -12 7 -24 24 -27 38 -3 14 -9 34 -12 45 -3 11
-6 23 -7 27 0 3 -3 10 -7 14 -5 4 -8 20 -8 35 0 34 -24 59 -55 59 -29 0 -24
26 6 35 15 5 18 12 12 33 -3 15 -11 30 -16 34 -6 3 -11 17 -11 31 -2 26 -22
57 -38 57 -5 0 -6 -5 -2 -12z m-101 -188 c4 -6 -5 -10 -20 -10 -15 0 -24 4
-20 10 3 6 12 10 20 10 8 0 17 -4 20 -10z m565 -116 c0 -8 -4 -12 -10 -9 -5 3
-10 10 -10 16 0 5 5 9 10 9 6 0 10 -7 10 -16z m-180 -225 c0 -6 -4 -7 -10 -4
-5 3 -10 11 -10 16 0 6 5 7 10 4 6 -3 10 -11 10 -16z m292 -2 c-10 -11 -25
-17 -39 -14 -13 2 -28 -2 -33 -9 -9 -10 -16 -8 -34 9 -12 12 -21 24 -20 27 1
3 34 5 72 5 68 0 70 -1 54 -18z"/>
<path d="M4464 2358 c-3 -4 4 -8 15 -8 11 0 22 4 26 9 3 6 -4 9 -16 8 -11 -1
-23 -5 -25 -9z"/>
<path d="M9368 2293 c7 -3 16 -2 19 1 4 3 -2 6 -13 5 -11 0 -14 -3 -6 -6z"/>
<path d="M9207 2279 c7 -7 15 -10 18 -7 3 3 -2 9 -12 12 -14 6 -15 5 -6 -5z"/>
<path d="M4371 2264 c0 -11 3 -14 6 -6 3 7 2 16 -1 19 -3 4 -6 -2 -5 -13z"/>
<path d="M2357 2202 c-17 -25 -48 -142 -38 -140 3 0 8 -1 11 -2 3 -1 15 -3 26
-4 19 -2 24 6 36 58 17 67 16 75 -6 57 -12 -10 -15 -7 -18 16 -2 19 -6 24 -11
15z"/>
<path d="M8833 2079 c-18 -5 -33 -12 -33 -15 0 -9 91 3 103 15 14 14 -22 14
-70 0z"/>
<path d="M4540 2070 c-13 -8 -12 -10 3 -10 9 0 17 5 17 10 0 12 -1 12 -20 0z"/>
<path d="M457 1963 c-14 -37 -43 -140 -121 -440 l-32 -123 47 0 c54 0 48 -9
88 140 78 293 111 433 103 447 -7 11 -11 12 -17 4 -5 -9 -10 -9 -21 0 -11 9
-14 8 -14 -2 0 -12 -2 -12 -9 -1 -6 10 -13 3 -24 -25z"/>
<path d="M2350 1994 c0 -5 -9 -10 -21 -11 -11 -1 -27 -7 -35 -13 -19 -16 -29
-79 -15 -93 16 -16 14 -40 -3 -34 -8 3 -18 -4 -24 -16 -15 -32 -23 -87 -12
-87 5 0 7 -7 3 -16 -4 -11 -8 -12 -13 -4 -4 6 -21 -39 -38 -102 -17 -62 -55
-203 -85 -313 -54 -198 -54 -200 -34 -217 10 -10 25 -18 32 -18 12 0 43 106
130 445 26 99 55 214 67 255 45 168 58 224 53 228 -3 3 -5 1 -5 -4z"/>
<path d="M7245 1987 c-55 -4 -125 -13 -155 -21 -52 -13 -53 -14 -20 -16 19 -2
41 -3 48 -3 6 1 12 -3 12 -9 0 -5 5 -6 10 -3 6 3 10 2 10 -3 0 -10 125 -30
275 -45 11 -1 23 -6 26 -10 3 -5 56 -10 117 -12 l111 -3 16 53 c8 29 15 58 15
63 0 11 -169 22 -175 12 -2 -3 -45 -3 -97 0 -51 3 -139 2 -193 -3z"/>
<path d="M8665 1959 c-4 -10 -17 -22 -31 -25 -14 -4 -22 -9 -19 -12 13 -14
-80 -35 -183 -42 -101 -7 -116 -10 -152 -36 -56 -40 -82 -54 -102 -54 -10 0
-18 -4 -18 -9 0 -5 -18 -16 -40 -25 -22 -9 -40 -20 -40 -26 0 -5 -7 -7 -16 -3
-10 4 -17 -1 -21 -16 -3 -11 -9 -21 -14 -21 -5 0 -17 -17 -28 -39 -11 -21 -27
-41 -35 -44 -9 -4 -13 -12 -10 -20 3 -8 -2 -20 -10 -27 -9 -7 -13 -16 -10 -22
3 -5 11 -4 20 2 7 7 19 10 26 8 7 -3 18 2 23 9 14 19 86 35 101 22 6 -5 35 -7
65 -3 30 3 72 1 94 -5 22 -6 42 -7 45 -2 6 10 65 27 125 37 22 3 42 9 45 14 6
9 111 57 144 66 23 6 38 18 113 101 29 30 29 32 12 55 -12 15 -26 22 -42 20
-13 -2 -34 5 -46 15 -23 18 -23 19 -3 42 14 19 21 21 27 11 6 -9 4 -11 -5 -5
-9 6 -11 4 -6 -4 6 -9 13 -8 27 5 25 22 24 27 -6 40 -21 10 -25 9 -30 -7z
m-312 -213 c10 -26 -48 -61 -74 -45 -10 6 -10 9 -1 9 6 0 12 6 12 13 0 32 52
51 63 23z"/>
<path d="M6358 1923 c7 -3 16 -2 19 1 4 3 -2 6 -13 5 -11 0 -14 -3 -6 -6z"/>
<path d="M6720 1788 c0 -12 -23 -16 -110 -21 -115 -6 -142 -13 -119 -29 12 -8
-275 -4 -377 6 -18 1 -40 -4 -52 -15 -21 -16 -20 -17 33 -24 30 -3 59 -4 64
-1 5 4 21 2 36 -4 28 -11 273 -32 364 -32 38 0 50 -3 40 -9 -9 -6 30 -8 111
-4 156 7 119 8 364 -4 131 -7 227 -16 255 -25 25 -9 82 -18 126 -21 44 -3 97
-8 117 -11 l37 -6 16 54 c9 29 18 71 22 94 l5 41 -93 6 c-52 3 -112 4 -134 3
-250 -19 -417 -27 -423 -22 -3 4 0 11 8 16 11 7 7 10 -17 10 -26 0 -31 -3 -26
-17 5 -12 3 -14 -7 -8 -7 4 -56 11 -109 15 -53 4 -104 11 -113 15 -13 5 -18 3
-18 -7z"/>
<path d="M5940 1740 c0 -5 5 -10 11 -10 5 0 7 5 4 10 -3 6 -8 10 -11 10 -2 0
-4 -4 -4 -10z"/>
<path d="M7443 1512 c-68 -2 -83 -6 -83 -19 0 -13 8 -14 51 -9 39 5 55 3 68
-8 11 -10 29 -13 59 -9 35 5 42 9 42 27 0 24 7 23 -137 18z"/>
<path d="M8200 1500 c0 -5 9 -10 20 -10 11 0 20 5 20 10 0 6 -9 10 -20 10 -11
0 -20 -4 -20 -10z"/>
<path d="M7270 1490 c8 -5 20 -10 25 -10 6 0 3 5 -5 10 -8 5 -19 10 -25 10 -5
0 -3 -5 5 -10z"/>
<path d="M7315 1490 c-3 -5 -1 -10 4 -10 6 0 11 5 11 10 0 6 -2 10 -4 10 -3 0
-8 -4 -11 -10z"/>
<path d="M7158 1483 c7 -3 16 -2 19 1 4 3 -2 6 -13 5 -11 0 -14 -3 -6 -6z"/>
<path d="M8200 1420 c-24 -8 -23 -8 8 -9 17 -1 32 4 32 9 0 11 -5 11 -40 0z"/>
<path d="M8140 1258 c-19 -4 -41 -5 -48 -3 -9 3 -12 -2 -10 -13 5 -26 79 -33
107 -11 11 10 21 19 21 22 0 10 -37 13 -70 5z"/>
<path d="M8298 1223 c7 -3 16 -2 19 1 4 3 -2 6 -13 5 -11 0 -14 -3 -6 -6z"/>
<path d="M8720 1220 c-11 -7 -5 -10 23 -10 23 0 36 4 32 10 -8 13 -35 13 -55
0z"/>
<path d="M255 1199 c-20 -64 -37 -122 -98 -339 -97 -348 -120 -444 -108 -448
17 -6 13 -30 -7 -41 -30 -16 -42 -80 -42 -230 l0 -141 1014 0 1014 0 -5 21
c-5 18 -3 20 16 14 25 -8 75 20 66 36 -4 5 -1 8 6 7 7 -2 18 9 25 23 21 40 50
62 73 54 12 -3 21 -11 21 -16 0 -5 7 -9 15 -9 21 0 19 -17 -5 -37 -32 -28 -24
-33 47 -26 60 6 71 10 99 40 51 54 69 128 38 154 -21 17 -121 22 -156 8 -30
-12 -34 -19 -19 -34 6 -6 6 -25 1 -45 -4 -19 -8 -29 -9 -22 -1 6 -10 12 -21
12 -10 0 -23 8 -29 17 -9 17 -10 17 -29 0 -16 -14 -24 -16 -47 -7 -16 6 -41 8
-56 5 -33 -7 -44 15 -33 70 7 38 23 44 49 18 10 -9 34 -18 55 -19 21 -1 43 -5
50 -9 6 -4 20 1 30 10 31 28 10 52 -52 60 -78 11 -89 18 -77 57 12 42 3 49
-48 36 -36 -9 -45 -8 -59 7 -16 16 -15 24 11 136 17 73 25 133 22 153 -3 22
-1 37 6 40 12 5 -18 36 -34 36 -4 0 -18 -35 -32 -77 -27 -80 -142 -502 -172
-630 l-18 -73 -864 0 c-791 0 -865 1 -859 16 3 9 17 60 31 113 14 53 32 119
39 146 121 436 226 845 226 878 0 10 -4 15 -10 12 -5 -3 -10 1 -10 10 0 9 -6
15 -12 12 -7 -2 -18 3 -24 11 -9 13 -12 11 -19 -9z m1685 -970 c0 -5 -7 -9
-15 -9 -9 0 -15 9 -15 21 0 18 2 19 15 9 8 -7 15 -16 15 -21z"/>
<path d="M8285 1110 c3 -5 13 -10 21 -10 8 0 12 5 9 10 -3 6 -13 10 -21 10 -8
0 -12 -4 -9 -10z"/>
<path d="M8243 953 c9 -2 25 -2 35 0 9 3 1 5 -18 5 -19 0 -27 -2 -17 -5z"/>
<path d="M2913 125 c9 -22 -10 -28 -34 -11 -33 23 -88 9 -125 -30 -35 -37 -49
-42 -58 -19 -3 8 -16 15 -30 15 -13 0 -44 8 -68 18 -52 21 -88 18 -88 -8 0
-13 -10 -21 -32 -25 -18 -4 -38 -11 -44 -16 -6 -5 -21 -10 -33 -12 -13 -2 -26
-9 -30 -16 -4 -6 -24 -11 -44 -9 -20 1 -39 -1 -43 -5 -4 -4 187 -7 425 -7 384
0 431 2 417 15 -8 8 -19 15 -24 15 -6 0 -12 5 -14 11 -2 6 -20 12 -39 14 -28
1 -44 11 -74 43 -37 41 -73 57 -62 27z"/>
</g>
</svg>
